<?xml version="1.0" standalone="no"?>
<!DOCTYPE svg PUBLIC "-//W3C//DTD SVG 20010904//EN"
 "http://www.w3.org/TR/2001/REC-SVG-20010904/DTD/svg10.dtd">
<svg version="1.0" xmlns="http://www.w3.org/2000/svg"
 width="500.000000pt" height="500.000000pt" viewBox="0 0 500.000000 500.000000"
 preserveAspectRatio="xMidYMid meet">
<metadata>
Created by potrace 1.14, written by Peter Selinger 2001-2017
</metadata>
<g transform="translate(0.000000,500.000000) scale(0.100000,-0.100000)"
fill="#000000" stroke="none">
<path d="M0 2500 l0 -2500 2500 0 2500 0 0 2500 0 2500 -2500 0 -2500 0 0
-2500z m3170 635 l0 -755 440 0 440 0 0 755 0 755 173 -2 172 -3 0 -1385 0
-1385 -172 -3 -173 -2 0 460 0 460 -477 0 -478 0 -137 137 -138 138 0 792 0
793 175 0 175 0 0 -755z m-1250 741 c0 -2 126 -624 280 -1382 154 -758 280
-1379 280 -1381 0 -2 -79 -3 -175 -3 -155 0 -176 2 -182 17 -4 9 -39 174 -78
367 l-72 351 -430 3 -430 2 -74 -367 -74 -368 -177 -3 -178 -2 0 22 c0 12 122
635 271 1385 l271 1363 384 0 c211 0 384 -2 384 -4z"/>
<path d="M1445 3508 c-3 -13 -63 -312 -134 -665 l-128 -643 357 0 357 0 -44
213 c-24 116 -85 415 -136 662 l-93 450 -87 3 c-83 3 -87 2 -92 -20z"/>
</g>
</svg>
